<svg width="33" height="32" viewBox="0 0 33 32" fill="none" xmlns="http://www.w3.org/2000/svg">
<path d="M20.6485 3.84697C20.7491 5.16164 20.3334 6.46379 19.4895 7.47686C19.0854 7.97947 18.5725 8.38383 17.9895 8.65949C17.4064 8.93515 16.7685 9.07493 16.1236 9.06829C16.0824 8.43608 16.1663 7.80196 16.3704 7.20218C16.5744 6.60239 16.8947 6.04871 17.3129 5.57279C18.1682 4.59858 19.3592 3.98238 20.6485 3.84697Z" fill="white"/>
<path d="M23.0003 13.4155C22.5718 14.1704 22.3413 15.0214 22.3301 15.8894C22.3311 16.8657 22.6196 17.8202 23.1594 18.6337C23.6992 19.4472 24.4666 20.0838 25.3658 20.4641C25.0123 21.6126 24.4794 22.698 23.7868 23.68C22.8567 25.0713 21.8816 26.4305 20.3338 26.4556C19.5977 26.4726 19.1008 26.2609 18.583 26.0404C18.043 25.8103 17.4802 25.5706 16.5995 25.5706C15.6656 25.5706 15.0776 25.818 14.5105 26.0567C14.0204 26.2629 13.546 26.4626 12.8773 26.4903C11.4033 26.5449 10.2768 25.0054 9.31296 23.6272C7.38645 20.8126 5.88634 15.6952 7.89745 12.2132C8.36173 11.3789 9.03421 10.6791 9.84936 10.1819C10.6645 9.68481 11.5945 9.40731 12.5488 9.37648C13.3848 9.35928 14.187 9.6815 14.8903 9.96399C15.4282 10.18 15.9082 10.3729 16.3013 10.3729C16.6468 10.3729 17.1135 10.1876 17.6573 9.97181C18.514 9.63182 19.5621 9.21581 20.6303 9.32793C21.4489 9.35354 22.2503 9.56968 22.9707 9.95917C23.6912 10.3487 24.3109 10.9008 24.7807 11.5717C24.0412 12.0263 23.4288 12.6606 23.0003 13.4155Z" fill="white"/>
</svg>
