<svg width="20" height="21" viewBox="0 0 20 21" fill="none" xmlns="http://www.w3.org/2000/svg">
<path d="M7 9.91461C7 9.38418 7.21071 8.87547 7.58579 8.5004C7.96086 8.12533 8.46957 7.91461 9 7.91461H15C15.5304 7.91461 16.0391 8.12533 16.4142 8.5004C16.7893 8.87547 17 9.38418 17 9.91461V15.9146C17 16.445 16.7893 16.9538 16.4142 17.3288C16.0391 17.7039 15.5304 17.9146 15 17.9146H9C8.46957 17.9146 7.96086 17.7039 7.58579 17.3288C7.21071 16.9538 7 16.445 7 15.9146V9.91461Z" fill="white"/>
<path d="M5 3.91461C4.46957 3.91461 3.96086 4.12533 3.58579 4.5004C3.21071 4.87547 3 5.38418 3 5.91461V11.9146C3 12.445 3.21071 12.9538 3.58579 13.3288C3.96086 13.7039 4.46957 13.9146 5 13.9146V5.91461H13C13 5.38418 12.7893 4.87547 12.4142 4.5004C12.0391 4.12533 11.5304 3.91461 11 3.91461H5Z" fill="white"/>
</svg>
