<svg width="24" height="24" viewBox="0 0 24 24" fill="none" xmlns="http://www.w3.org/2000/svg">
<path d="M21.7497 11.9956C21.7449 14.3777 20.8707 16.676 19.2912 18.4592C17.7117 20.2423 15.5357 21.3876 13.1716 21.6799C13.1188 21.6851 13.0656 21.6793 13.0152 21.6629C12.9648 21.6466 12.9183 21.6199 12.8787 21.5847C12.839 21.5495 12.8071 21.5064 12.7849 21.4583C12.7628 21.4102 12.7508 21.3579 12.7497 21.3049V14.2456H14.9997C15.1023 14.2458 15.2038 14.2249 15.298 14.1843C15.3922 14.1438 15.4771 14.0843 15.5473 14.0096C15.6176 13.9349 15.6719 13.8466 15.7067 13.7501C15.7415 13.6536 15.7561 13.5511 15.7497 13.4487C15.7331 13.2548 15.6436 13.0743 15.4992 12.9438C15.3548 12.8133 15.1662 12.7425 14.9716 12.7456H12.7497V10.4956C12.7497 10.0977 12.9078 9.71621 13.1891 9.43491C13.4704 9.1536 13.8519 8.99557 14.2497 8.99557H15.7497C15.8523 8.99577 15.9538 8.97493 16.048 8.93434C16.1422 8.89375 16.2271 8.83428 16.2973 8.75959C16.3676 8.68491 16.4219 8.5966 16.4567 8.50012C16.4915 8.40365 16.5061 8.30105 16.4997 8.19869C16.4831 8.00476 16.3936 7.82434 16.2492 7.69384C16.1048 7.56334 15.9162 7.49249 15.7216 7.49557H14.2497C13.4541 7.49557 12.691 7.81164 12.1284 8.37425C11.5658 8.93686 11.2497 9.69992 11.2497 10.4956V12.7456H8.99973C8.89716 12.7454 8.79565 12.7662 8.70146 12.8068C8.60727 12.8474 8.5224 12.9069 8.45211 12.9815C8.38182 13.0562 8.32759 13.1445 8.29278 13.241C8.25797 13.3375 8.24332 13.4401 8.24973 13.5424C8.26632 13.7364 8.35586 13.9168 8.50027 14.0473C8.64469 14.1778 8.83323 14.2486 9.02785 14.2456H11.2497V21.3049C11.25 21.3575 11.2392 21.4095 11.2181 21.4577C11.1969 21.5058 11.1659 21.5489 11.127 21.5843C11.0881 21.6197 11.0422 21.6465 10.9923 21.6629C10.9424 21.6794 10.8895 21.6852 10.8372 21.6799C5.88723 21.0799 2.06223 16.7768 2.2591 11.6299C2.36962 9.08818 3.46928 6.69028 5.32335 4.9481C7.17743 3.20592 9.63905 2.25747 12.1828 2.30518C14.7265 2.3529 17.1508 3.39301 18.9382 5.20351C20.7257 7.014 21.7346 9.45144 21.7497 11.9956Z" fill="#9CA3AF"/>
</svg>
