<svg width="33" height="32" viewBox="0 0 33 32" fill="none" xmlns="http://www.w3.org/2000/svg">
<path d="M14.5 27.8667C8.83333 26.8667 4.5 21.9333 4.5 16C4.5 9.4 9.9 4 16.5 4C23.1 4 28.5 9.4 28.5 16C28.5 21.9333 24.1667 26.8667 18.5 27.8667L17.8333 27.3333H15.1667L14.5 27.8667Z" fill="url(#paint0_linear_1_4456)"/>
<path d="M21.1667 19.3333L21.7 16H18.5V13.6667C18.5 12.7333 18.8333 12 20.3 12H21.8333V8.93332C20.9667 8.79999 20.0333 8.66666 19.1667 8.66666C16.4333 8.66666 14.5 10.3333 14.5 13.3333V16H11.5V19.3333H14.5V27.8C15.1667 27.9333 15.8333 28 16.5 28C17.1667 28 17.8333 27.9333 18.5 27.8V19.3333H21.1667Z" fill="white"/>
<defs>
<linearGradient id="paint0_linear_1_4456" x1="16.5" y1="27.1693" x2="16.5" y2="4" gradientUnits="userSpaceOnUse">
<stop stop-color="#0062E0"/>
<stop offset="1" stop-color="#19AFFF"/>
</linearGradient>
</defs>
</svg>
