<svg width="14" height="17" viewBox="0 0 14 17" fill="none" xmlns="http://www.w3.org/2000/svg">
<path fill-rule="evenodd" clip-rule="evenodd" d="M8.757 0.948601C9.034 1.0216 9.266 1.21058 9.395 1.46758C9.878 2.43458 10.239 3.02161 10.602 3.49761C10.97 3.97961 11.358 4.37359 11.95 4.96459C13.316 6.33159 14 8.12461 14 9.91461C14 11.7046 13.316 13.4976 11.95 14.8646C9.216 17.5976 4.784 17.5976 2.05 14.8646C0.684003 13.4976 0 11.7046 0 9.91461C0 8.12461 0.684003 6.33159 2.05 4.96459C2.336 4.67859 2.766 4.59359 3.14 4.74859C3.514 4.90259 3.757 5.26762 3.757 5.67162C3.757 6.79162 3.827 7.64462 4.155 8.32562C4.335 8.69962 4.61601 9.06563 5.10001 9.39263C5.21601 8.33163 5.428 7.03861 5.714 5.81261C5.939 4.84661 6.21899 3.88261 6.55299 3.07861C6.71999 2.67561 6.909 2.29358 7.123 1.96258C7.331 1.64058 7.59901 1.31363 7.94501 1.08263C8.18401 0.923635 8.48 0.874601 8.757 0.948601ZM9.121 14.0356C7.95 15.2076 6.05 15.2076 4.879 14.0356C4.293 13.4506 4 12.6826 4 11.9146C4 11.9146 4.879 12.4146 6.5 12.4146C6.5 11.4146 7 8.4146 7.75 7.9146C8.25 8.9146 8.536 9.20763 9.121 9.79363C9.707 10.3786 10 11.1466 10 11.9146C10 12.6826 9.707 13.4506 9.121 14.0356Z" fill="white"/>
</svg>
