<svg width="33" height="32" viewBox="0 0 33 32" fill="none" xmlns="http://www.w3.org/2000/svg">
<path fill-rule="evenodd" clip-rule="evenodd" d="M27.38 16.2576C27.38 15.454 27.3079 14.6813 27.174 13.9394H16.5V18.3234H22.5994C22.3367 19.7401 21.5382 20.9404 20.3379 21.744V24.5876H24.0006C26.1437 22.6146 27.38 19.7091 27.38 16.2576Z" fill="#4285F4"/>
<path fill-rule="evenodd" clip-rule="evenodd" d="M16.5 27.3334C19.56 27.3334 22.1255 26.3185 24.0006 24.5876L20.3379 21.744C19.3231 22.424 18.0249 22.8258 16.5 22.8258C13.5482 22.8258 11.0497 20.8322 10.1585 18.1534H6.37213V21.0897C8.23698 24.7937 12.0697 27.3334 16.5 27.3334Z" fill="#34A853"/>
<path fill-rule="evenodd" clip-rule="evenodd" d="M10.1585 18.1534C9.93179 17.4734 9.803 16.747 9.803 16.0001C9.803 15.2531 9.93179 14.5267 10.1585 13.8467V10.9104H6.37208C5.60451 12.4404 5.16663 14.1713 5.16663 16.0001C5.16663 17.8289 5.60451 19.5598 6.37208 21.0898L10.1585 18.1534Z" fill="#FBBC05"/>
<path fill-rule="evenodd" clip-rule="evenodd" d="M16.5 9.1743C18.164 9.1743 19.6579 9.74612 20.8325 10.8692L24.0831 7.61854C22.1203 5.78975 19.5549 4.66672 16.5 4.66672C12.0697 4.66672 8.23698 7.20642 6.37213 10.9104L10.1585 13.8467C11.0497 11.1679 13.5482 9.1743 16.5 9.1743Z" fill="#EA4335"/>
</svg>
