<svg width="78" height="24" viewBox="0 0 78 24" fill="none" xmlns="http://www.w3.org/2000/svg">
<path d="M-0.000244141 23.6978H3.86502V12.5728H11.5393V9.02371H3.86502V8.97452C3.86502 7.27379 4.42724 5.86822 5.49545 4.91244C6.45123 4.05505 7.80055 3.61932 9.28341 3.61932H11.954V0H9.41693C3.61202 0 -0.000244141 3.5631 -0.000244141 9.29077V23.6978Z" fill="white"/>
<path d="M43.9718 8.13816C46.9305 8.13816 48.7858 10.1832 48.7858 13.1982V23.6977H52.5316V13.3598C52.5316 7.70946 48.7717 4.63831 43.9718 4.63831C39.1718 4.63831 35.412 7.70946 35.412 13.3598V23.6977H39.1578V13.1982C39.1578 10.1832 41.0131 8.13816 43.9718 8.13816Z" fill="white"/>
<path d="M23.2467 23.9996C26.599 23.9996 29.6068 22.2497 31.2443 19.5932L27.8921 18.0752C26.8379 19.5089 25.1653 20.4436 23.2467 20.4436C21.3281 20.4436 19.6555 19.5089 18.6014 18.0752L15.2491 19.5932C16.8866 22.2567 19.8945 23.9996 23.2467 23.9996Z" fill="white"/>
<path d="M64.6941 24C68.0463 24 71.0542 22.2501 72.6917 19.5936L69.3394 18.0756C68.2853 19.5092 66.6127 20.4439 64.6941 20.4439C62.7755 20.4439 61.1029 19.5092 60.0488 18.0756L56.6965 19.5936C58.334 22.2571 61.3419 24 64.6941 24Z" fill="white"/>
<path d="M64.6957 8.10302C67.9004 8.10302 70.5147 10.5909 70.5147 13.901C70.5147 14.5756 70.4304 15.3136 70.2266 15.9179H73.9794C74.127 15.2644 74.2675 14.0767 74.0848 12.7625C73.4593 8.15924 69.4816 4.63831 64.6957 4.63831C59.9098 4.63831 55.9321 8.15924 55.3067 12.7625C55.1239 14.0767 55.2645 15.2644 55.4121 15.9179H59.1649C58.9611 15.3136 58.8768 14.5686 58.8768 13.901C58.8768 10.5909 61.4841 8.10302 64.6957 8.10302Z" fill="white"/>
<path d="M32.6374 12.7694C32.0119 8.1662 28.0342 4.64526 23.2483 4.64526C18.4625 4.64526 14.4847 8.1662 13.8593 12.7694C13.6766 14.0836 13.8171 15.2713 13.9647 15.9249H32.532C32.6796 15.2713 32.8201 14.0836 32.6374 12.7694ZM23.2483 8.0397C26.3616 8.0397 28.6949 10.3167 28.9619 12.7413H17.5348C17.8018 10.3167 20.1351 8.0397 23.2483 8.0397Z" fill="white"/>
<path d="M73.1033 3.0643H72.3584V2.64966H74.3051V3.0643H73.5601V5.1375H73.1033V3.0643ZM74.7619 2.64966H75.1765L76.048 3.80925L76.9194 2.64966H77.334V5.1375H76.8772V3.47894L76.048 4.5542L75.2187 3.47894V5.1375H74.7619V2.64966Z" fill="white"/>
</svg>
