<svg width="91" height="33" viewBox="0 0 91 33" fill="none" xmlns="http://www.w3.org/2000/svg">
<rect x="0.0422363" width="90.9577" height="32.3499" rx="16.1749" fill="#FFC539"/>
<path d="M37.0777 11.6568H33.3723C33.1188 11.6568 32.9031 11.841 32.8636 12.0914L31.365 21.5929C31.3352 21.7804 31.4804 21.9494 31.6705 21.9494H33.4395C33.6931 21.9494 33.9087 21.7652 33.9483 21.5143L34.3525 18.9516C34.3915 18.7008 34.6077 18.5166 34.8607 18.5166H36.0337C38.4745 18.5166 39.8832 17.3354 40.251 14.9949C40.4168 13.9709 40.2581 13.1663 39.7786 12.6028C39.252 11.9841 38.3179 11.6568 37.0777 11.6568ZM37.5052 15.1271C37.3026 16.4566 36.2867 16.4566 35.3044 16.4566H34.7453L35.1375 13.9736C35.1608 13.8235 35.2909 13.713 35.4426 13.713H35.6988C36.368 13.713 36.9992 13.713 37.3253 14.0944C37.5198 14.3219 37.5794 14.66 37.5052 15.1271Z" fill="#253B80"/>
<path d="M48.1558 15.084H46.3814C46.2302 15.084 46.0997 15.1945 46.0764 15.3446L45.9978 15.8409L45.8737 15.661C45.4896 15.1035 44.633 14.9171 43.778 14.9171C41.8173 14.9171 40.1426 16.4022 39.8164 18.4854C39.6468 19.5246 39.8879 20.5183 40.4774 21.2112C41.0181 21.8484 41.7918 22.1139 42.7123 22.1139C44.2922 22.1139 45.1683 21.098 45.1683 21.098L45.0892 21.591C45.0594 21.7796 45.2046 21.9486 45.3937 21.9486H46.992C47.2461 21.9486 47.4607 21.7644 47.5007 21.5135L48.4597 15.4405C48.4901 15.2536 48.3454 15.084 48.1558 15.084ZM45.6825 18.5374C45.5113 19.5511 44.7067 20.2316 43.6805 20.2316C43.1653 20.2316 42.7535 20.0664 42.4891 19.7532C42.2269 19.4422 42.1272 18.9996 42.2106 18.5065C42.3704 17.5015 43.1886 16.7988 44.199 16.7988C44.7029 16.7988 45.1125 16.9662 45.3823 17.2821C45.6527 17.6012 45.7599 18.0466 45.6825 18.5374Z" fill="#253B80"/>
<path d="M57.6048 15.0835H55.8217C55.6516 15.0835 55.4918 15.168 55.3953 15.3094L52.9361 18.9319L51.8937 15.4508C51.8281 15.233 51.6271 15.0835 51.3995 15.0835H49.6474C49.4344 15.0835 49.2865 15.2915 49.3542 15.492L51.3183 21.2557L49.4718 23.8623C49.3266 24.0676 49.4729 24.3499 49.7237 24.3499H51.5046C51.6737 24.3499 51.8319 24.2675 51.9278 24.1288L57.8583 15.5684C58.0003 15.3636 57.8546 15.0835 57.6048 15.0835Z" fill="#253B80"/>
<path d="M63.508 11.6568H59.8021C59.5491 11.6568 59.3334 11.841 59.2939 12.0914L57.7953 21.5929C57.7655 21.7804 57.9107 21.9494 58.0998 21.9494H60.0015C60.1781 21.9494 60.3293 21.8205 60.3569 21.6449L60.7822 18.9516C60.8212 18.7008 61.0374 18.5166 61.2904 18.5166H62.4629C64.9042 18.5166 66.3124 17.3354 66.6808 14.9949C66.8471 13.9709 66.6873 13.1663 66.2078 12.6028C65.6817 11.9841 64.7482 11.6568 63.508 11.6568ZM63.9355 15.1271C63.7334 16.4566 62.7175 16.4566 61.7347 16.4566H61.1761L61.5689 13.9736C61.5922 13.8235 61.7212 13.713 61.8734 13.713H62.1297C62.7983 13.713 63.43 13.713 63.7562 14.0944C63.9507 14.3219 64.0097 14.66 63.9355 15.1271Z" fill="#179BD7"/>
<path d="M74.5818 15.084H72.8085C72.6563 15.084 72.5268 15.1945 72.504 15.3446L72.4254 15.8409L72.3008 15.661C71.9167 15.1035 71.0606 14.9171 70.2057 14.9171C68.2449 14.9171 66.5707 16.4022 66.2446 18.4854C66.0755 19.5246 66.3156 20.5183 66.905 21.2112C67.4468 21.8484 68.2194 22.1139 69.14 22.1139C70.7199 22.1139 71.5959 21.098 71.5959 21.098L71.5168 21.591C71.487 21.7796 71.6322 21.9486 71.8224 21.9486H73.4202C73.6732 21.9486 73.8888 21.7644 73.9284 21.5135L74.8879 15.4405C74.9172 15.2536 74.772 15.084 74.5818 15.084ZM72.1085 18.5374C71.9384 19.5511 71.1327 20.2316 70.1065 20.2316C69.5924 20.2316 69.1795 20.0664 68.9151 19.7532C68.6529 19.4422 68.5543 18.9996 68.6366 18.5065C68.7975 17.5015 69.6146 16.7988 70.625 16.7988C71.1289 16.7988 71.5385 16.9662 71.8083 17.2821C72.0798 17.6012 72.1871 18.0466 72.1085 18.5374Z" fill="#179BD7"/>
<path d="M76.675 11.9175L75.1542 21.593C75.1244 21.7804 75.2696 21.9495 75.4587 21.9495H76.9876C77.2417 21.9495 77.4574 21.7653 77.4964 21.5144L78.9961 12.0134C79.0259 11.8259 78.8807 11.6563 78.6916 11.6563H76.9795C76.8283 11.6569 76.6983 11.7674 76.675 11.9175Z" fill="#179BD7"/>
<path d="M15.9797 23.7954L16.263 21.9955L15.6318 21.9809H12.6178L14.7124 8.69974C14.7189 8.65964 14.74 8.62226 14.7709 8.59571C14.8018 8.56916 14.8413 8.55453 14.8825 8.55453H19.9646C21.6518 8.55453 22.8161 8.90562 23.424 9.59859C23.709 9.92367 23.8905 10.2634 23.9783 10.6372C24.0704 11.0295 24.072 11.4981 23.9821 12.0697L23.9756 12.1115V12.4777L24.2606 12.6392C24.5006 12.7665 24.6913 12.9122 24.8376 13.0791C25.0814 13.3571 25.239 13.7103 25.3057 14.1291C25.3745 14.5599 25.3517 15.0724 25.239 15.6527C25.109 16.3202 24.8988 16.9015 24.6149 17.3772C24.3537 17.8155 24.0211 18.1791 23.6261 18.4608C23.249 18.7285 22.8009 18.9316 22.2944 19.0617C21.8035 19.1895 21.2438 19.254 20.6299 19.254H20.2344C19.9516 19.254 19.6769 19.3559 19.4613 19.5385C19.2451 19.7248 19.1021 19.9795 19.0582 20.258L19.0284 20.42L18.5278 23.5922L18.505 23.7087C18.499 23.7455 18.4888 23.764 18.4736 23.7764C18.46 23.7878 18.4405 23.7954 18.4216 23.7954H15.9797Z" fill="#253B80"/>
<path d="M24.5308 12.1538C24.5156 12.2507 24.4983 12.3499 24.4788 12.4517C23.8086 15.8927 21.5157 17.0814 18.5873 17.0814H17.0962C16.7381 17.0814 16.4363 17.3415 16.3805 17.6948L15.6171 22.5363L15.4009 23.9087C15.3646 24.1406 15.5434 24.3497 15.7775 24.3497H18.422C18.7352 24.3497 19.0012 24.1221 19.0505 23.8133L19.0765 23.6789L19.5744 20.5192L19.6064 20.3458C19.6552 20.0359 19.9217 19.8083 20.2349 19.8083H20.6304C23.1926 19.8083 25.1983 18.7681 25.7845 15.7578C26.0294 14.5003 25.9027 13.4503 25.2547 12.7118C25.0585 12.4891 24.8153 12.3044 24.5308 12.1538Z" fill="#179BD7"/>
<path d="M23.8282 11.8749C23.7258 11.8451 23.6202 11.818 23.5118 11.7936C23.4029 11.7698 23.2913 11.7487 23.1765 11.7303C22.7744 11.6652 22.334 11.6344 21.8621 11.6344H17.8787C17.7807 11.6344 17.6875 11.6566 17.604 11.6967C17.4204 11.785 17.2838 11.9589 17.2508 12.1718L16.4034 17.5389L16.379 17.6955C16.4348 17.3422 16.7366 17.0822 17.0947 17.0822H18.5858C21.5142 17.0822 23.8071 15.8929 24.4773 12.4525C24.4974 12.3506 24.5142 12.2515 24.5293 12.1545C24.3598 12.0645 24.1761 11.9876 23.9783 11.9221C23.9296 11.9058 23.8792 11.8901 23.8282 11.8749Z" fill="#222D65"/>
<path d="M17.2511 12.1713C17.2842 11.9584 17.4207 11.7845 17.6044 11.6967C17.6883 11.6566 17.781 11.6344 17.879 11.6344H21.8624C22.3343 11.6344 22.7748 11.6653 23.1768 11.7303C23.2916 11.7487 23.4032 11.7699 23.5122 11.7937C23.6205 11.8181 23.7262 11.8452 23.8286 11.875C23.8795 11.8901 23.9299 11.9058 23.9792 11.9216C24.1769 11.9871 24.3606 12.0646 24.5302 12.154C24.7296 10.8824 24.5286 10.0166 23.841 9.2326C23.083 8.36951 21.715 8 19.9644 8H14.8823C14.5248 8 14.2197 8.26006 14.1645 8.61386L12.0476 22.0316C12.0059 22.297 12.2107 22.5365 12.4784 22.5365H15.6159L16.4037 17.5384L17.2511 12.1713Z" fill="#253B80"/>
</svg>
