<svg width="22" height="19" viewBox="0 0 22 19" fill="none" xmlns="http://www.w3.org/2000/svg">
<path d="M21.034 4.28446L18.2028 7.10634C17.6403 13.6595 12.109 18.7501 5.49964 18.7501C4.14026 18.7501 3.01526 18.5345 2.16214 18.1126C1.47776 17.7657 1.19651 17.4001 1.12151 17.2876C1.05946 17.1933 1.01948 17.0863 1.00454 16.9744C0.989598 16.8626 1.00009 16.7488 1.03523 16.6416C1.07038 16.5344 1.12926 16.4364 1.20751 16.3551C1.28575 16.2738 1.38134 16.2112 1.48714 16.172C1.50589 16.1626 3.71839 15.3188 5.15276 13.697C4.26321 13.0636 3.48134 12.2912 2.83714 11.4095C1.55276 9.66571 0.193389 6.63759 1.00901 2.11884C1.03465 1.9845 1.0961 1.85958 1.18686 1.75727C1.27761 1.65496 1.39432 1.57906 1.52464 1.53759C1.65538 1.49478 1.79537 1.48875 1.9293 1.52017C2.06324 1.55159 2.18595 1.61923 2.28401 1.71571C2.31214 1.75321 5.43401 4.82821 9.24964 5.82196V5.25009C9.25332 4.65544 9.37409 4.06735 9.60506 3.51938C9.83603 2.97141 10.1727 2.4743 10.5958 2.05643C11.0188 1.63857 11.5201 1.30813 12.0709 1.08398C12.6217 0.859841 13.2112 0.746383 13.8059 0.750088C14.5863 0.761219 15.3506 0.974321 16.0242 1.36863C16.6978 1.76294 17.2578 2.32502 17.6496 3.00009H20.4996C20.6477 2.99962 20.7926 3.043 20.9161 3.12475C21.0395 3.2065 21.136 3.32296 21.1934 3.45946C21.2474 3.598 21.2611 3.749 21.2329 3.895C21.2047 4.04099 21.1358 4.17602 21.034 4.28446Z" fill="#9CA3AF"/>
</svg>
