<svg width="16" height="16" viewBox="0 0 16 16" fill="none" xmlns="http://www.w3.org/2000/svg">
<path d="M9.34353 6.14353C8.98721 6.49985 8.50394 6.70002 8.00002 6.70002C7.49611 6.70002 7.01284 6.49985 6.65652 6.14353C6.3002 5.78721 6.10002 5.30394 6.10002 4.80002C6.10002 4.29611 6.3002 3.81284 6.65652 3.45652C7.01284 3.1002 7.49611 2.90002 8.00002 2.90002C8.50394 2.90002 8.98721 3.1002 9.34353 3.45652C9.69985 3.81284 9.90003 4.29611 9.90003 4.80002C9.90003 5.30394 9.69985 5.78721 9.34353 6.14353ZM2.92459 13.9C2.97368 13.4018 3.09595 12.9126 3.28824 12.4483C3.54454 11.8296 3.9202 11.2674 4.39378 10.7938C4.86736 10.3202 5.42958 9.94454 6.04834 9.68824C6.6671 9.43194 7.33028 9.30002 8.00002 9.30002C8.66977 9.30002 9.33295 9.43194 9.95171 9.68824C10.5705 9.94454 11.1327 10.3202 11.6063 10.7938C12.0798 11.2674 12.4555 11.8296 12.7118 12.4483C12.9041 12.9126 13.0264 13.4018 13.0755 13.9H2.92459Z" fill="#9CA3AF" stroke="#9CA3AF"/>
</svg>
