<svg width="24" height="24" viewBox="0 0 24 24" fill="none" xmlns="http://www.w3.org/2000/svg">
<path d="M21.9656 6.54654C21.8795 6.2009 21.7108 5.88132 21.474 5.61517C21.2373 5.34902 20.9395 5.14425 20.6063 5.01841C17.4 3.78091 12.2812 3.79029 12 3.79029C11.7188 3.79029 6.6 3.78091 3.39375 5.01841C3.06051 5.14425 2.76275 5.34902 2.52599 5.61517C2.28923 5.88132 2.12054 6.2009 2.03438 6.54654C1.79063 7.47466 1.5 9.18091 1.5 12.0028C1.5 14.8247 1.79063 16.5309 2.03438 17.459C2.12054 17.8047 2.28923 18.1243 2.52599 18.3904C2.76275 18.6565 3.06051 18.8613 3.39375 18.9872C6.46875 20.1778 11.2875 20.2153 11.9344 20.2153H12.0656C12.7125 20.2153 17.5312 20.1778 20.6063 18.9872C20.9395 18.8613 21.2373 18.6565 21.474 18.3904C21.7108 18.1243 21.8795 17.8047 21.9656 17.459C22.2094 16.5309 22.5 14.8247 22.5 12.0028C22.5 9.18091 22.2094 7.47466 21.9656 6.54654ZM15.2062 12.3122L10.7062 15.3122C10.6466 15.3561 10.5741 15.3791 10.5 15.3778C10.4379 15.3755 10.3771 15.3595 10.3219 15.3309C10.262 15.2997 10.2118 15.2526 10.1771 15.1947C10.1423 15.1367 10.1243 15.0703 10.125 15.0028V9.00278C10.1243 8.93524 10.1423 8.86883 10.1771 8.81091C10.2118 8.75299 10.262 8.70583 10.3219 8.67466C10.3817 8.64277 10.449 8.62767 10.5167 8.63097C10.5843 8.63427 10.6499 8.65585 10.7062 8.69341L15.2062 11.6934C15.2585 11.7263 15.3016 11.772 15.3315 11.8261C15.3614 11.8802 15.377 11.941 15.377 12.0028C15.377 12.0646 15.3614 12.1254 15.3315 12.1795C15.3016 12.2336 15.2585 12.2792 15.2062 12.3122Z" fill="#9CA3AF"/>
</svg>
